<?xml version="1.0" encoding="UTF-8"?>
<svg width="18px" height="18px" viewBox="0 0 18 18" version="1.1" xmlns="http://www.w3.org/2000/svg" xmlns:xlink="http://www.w3.org/1999/xlink">
    <!-- Generator: Sketch 52 (66869) - http://www.bohemiancoding.com/sketch -->
    <title>收费停车场@3x</title>
    <desc>Created with Sketch.</desc>
    <g id="首页" stroke="none" stroke-width="1" fill="none" fill-rule="evenodd">
        <g id="12-首页-酒店详情-酒店设施" transform="translate(-137.000000, -1173.000000)">
            <g id="分组-16-copy-3" transform="translate(137.000000, 1172.144605)">
                <g id="房间wifi-copy" transform="translate(0.000000, 0.317276)">
                    <g id="分组-21">
                        <g id="收费停车场" transform="translate(0.986154, 0.702473)">
                            <rect id="矩形" x="0.562461438" y="0.500008727" width="16" height="16"></rect>
                            <path d="M4.56296774,7.95739387 C3.32906944,7.95739387 2.32876844,6.95709418 2.32876844,5.72319456 C2.32876844,4.48929625 3.32906812,3.48899525 4.56296774,3.48899525 C5.79686605,3.48899525 6.79716705,4.48929493 6.79716705,5.72319456 C6.79716706,6.95709286 5.79686737,7.95739387 4.56296774,7.95739387 Z M4.56296774,7.21266076 C5.38552478,7.21266076 6.05243395,6.54575291 6.05243395,5.72319456 C6.05243395,4.90063753 5.3855261,4.23372835 4.56296774,4.23372835 C3.74041071,4.23372835 3.07350154,4.90063621 3.07350154,5.72319456 C3.07350154,6.54575159 3.74040939,7.21266076 4.56296774,7.21266076 Z M5.05858712,2.51302191 L4.05195614,2.51302191 C2.51495237,2.9315612 1.64237785,3.8138216 1.38035314,5.19567032 L1.38035314,6.4241067 C1.88205409,7.93888751 2.81520003,8.81867591 4.21009318,9.10688724 L4.97592619,9.10688724 C5.08763616,9.10688724 5.48135167,9.00696891 6.09066747,8.8127172 L10.836483,7.51229009 L10.836483,4.03885078 L5.05859504,2.51301134 L5.05858712,2.51302191 Z M4.97592183,9.8517485 L4.1728515,9.8517485 C4.14847046,9.85173175 4.12414994,9.84932049 4.10024018,9.84454944 C2.39480706,9.50619246 1.23524995,8.40846059 0.653370644,6.59726366 C0.641585861,6.56047407 0.635597688,6.52207461 0.635621205,6.48344367 L0.635621205,5.16154803 L0.63562121,5.16155407 C0.635602305,5.13920243 0.637595948,5.11689452 0.641577992,5.09490041 C0.952256696,3.38586035 2.05992283,2.26863518 3.90784972,1.78058905 C3.9388749,1.77237148 3.97083222,1.76819948 4.00292721,1.76817684 L5.10699301,1.76817684 C5.13908801,1.76819949 5.17104546,1.77237148 5.20207052,1.78058906 L11.3039089,3.3920701 C11.467315,3.43522372 11.581166,3.58301572 11.5811977,3.75202377 L11.5811977,7.796548 L11.5811977,7.79647749 C11.5811977,7.9642436 11.46901,8.11129426 11.307204,8.15561465 L6.30948432,9.52482325 C5.61899266,9.74464417 5.19635758,9.85176091 4.97592229,9.85176091 L4.97592183,9.8517485 Z M2.20998359,8.81942504 L2.20998359,8.81942435 C2.20765324,8.61377222 2.37247801,8.44516846 2.57813015,8.44283914 C2.78378229,8.4405088 2.95238605,8.60533357 2.95471537,8.81098571 C2.96625872,9.84368175 2.88893068,10.631603 2.71615291,11.1843229 C2.48131366,11.9350134 2.2309593,13.1144166 2.2309593,13.4587402 L2.2309593,13.498087 C2.23046281,13.7326778 2.23666892,13.8642477 2.26323107,14.0107118 C2.32405088,14.3460894 2.44891823,14.4870928 2.73588761,14.4870928 L5.43939812,14.4870928 C5.72537526,14.4873411 5.79587697,14.2925931 5.58784796,13.5606455 C5.55507967,13.4452119 5.43455716,13.0362301 5.4083679,12.9440062 C5.34332785,12.7143805 5.29914038,12.5363894 5.26637223,12.3605084 C5.09210439,11.4261165 5.27307483,10.5474617 6.00725661,8.98402032 C6.09117641,8.79626939 6.31140849,8.71209831 6.4991594,8.79601835 C6.6869103,8.87993814 6.77108138,9.10017022 6.68716133,9.28792113 C6.68526608,9.2921613 6.68329166,9.29636565 6.68123912,9.30053197 C6.0077529,10.735141 5.85719175,11.4662127 5.99856777,12.2239863 C6.02637116,12.3736781 6.06546955,12.531313 6.12479994,12.7408311 C6.14962438,12.828213 6.27002336,13.2369472 6.3041558,13.3569736 C6.62724607,14.49356 6.35976246,15.2324612 5.43902504,15.2318402 L2.73589769,15.2318402 C2.03386251,15.2318402 1.64883601,14.7974132 1.53042415,14.1435379 C1.49355995,13.9396047 1.4856161,13.7742749 1.48623668,13.4964894 L1.48623668,13.4587562 C1.48623668,13.0206047 1.74974776,11.7792586 2.00531566,10.9620433 C2.15053908,10.4981993 2.22079109,9.78077324 2.20999274,8.81944432 L2.20998359,8.81942504 Z M12.6467904,4.66915022 C12.5018008,4.81499591 12.2660328,4.81568955 12.120187,4.67070026 C11.9765491,4.52790525 11.9733848,4.2964906 12.1130659,4.14982309 C12.4752537,3.77758073 12.8374429,3.57662686 13.2100579,3.57662686 C13.268147,3.57662686 13.3258638,3.58258472 13.3835805,3.59400396 C13.4913185,3.61510467 13.593347,3.65321016 13.711015,3.71030636 C13.7519752,3.73016591 13.7921908,3.7508943 13.8479213,3.78055956 L13.9130854,3.81531377 C13.9382822,3.82896715 13.9577694,3.83914518 13.9767601,3.84907495 C14.2294729,3.98089259 14.4051055,4.03712049 14.6257945,4.03712049 C14.8086265,4.03712049 14.9424306,4.01651617 15.023358,3.98263092 C15.0625806,3.96624685 15.0685385,3.96041299 15.0695314,3.95743417 C15.135203,3.76254474 15.3464291,3.65779299 15.5413199,3.72346432 C15.7362094,3.78913591 15.8409611,4.00036202 15.7752898,4.19525281 C15.6356525,4.60957212 15.2238158,4.78185416 14.6257951,4.78185416 C14.2636073,4.78185416 13.9817259,4.69174154 13.6323222,4.50940633 C13.2597073,4.31503082 13.3071219,4.33799365 13.2395996,4.32471273 C13.2298841,4.32264344 13.2199908,4.32152108 13.2100587,4.32136144 C13.0731523,4.32136144 12.8820032,4.42736175 12.6467927,4.66915195 L12.6467904,4.66915022 Z M14.3609171,6.03225477 C14.0211953,5.85376695 13.7815151,5.77321205 13.5229692,5.77321205 C13.1674839,5.77321205 13.0264805,5.8670484 12.9810516,6.08140686 C12.9383787,6.28260385 12.740683,6.41111249 12.5394873,6.36843967 C12.3382904,6.32576685 12.2097817,6.1280711 12.2524545,5.92687545 C12.3778179,5.33679928 12.8407933,5.02847896 13.5229692,5.02847896 C13.9286001,5.02847896 14.2698123,5.14316775 14.7070944,5.37279333 C15.2121473,5.63804182 15.1988664,5.63183604 15.2596862,5.63183604 C15.419307,5.63183604 15.6249776,5.53191772 15.8718572,5.30936676 C16.0266885,5.1740155 16.2619294,5.18980793 16.3972807,5.34463994 C16.5296737,5.49608763 16.5178518,5.7253064 16.3705805,5.86233032 C15.9988349,6.19745955 15.6303158,6.37656835 15.2596879,6.37656835 C15.102053,6.37656835 14.9519886,6.33138784 14.7720117,6.24710895 L14.772012,6.24710907 C14.7019697,6.21383832 14.6328503,6.17865802 14.5647321,6.14160752 L14.4629519,6.08649725 C14.4219917,6.06452757 14.3912093,6.04801944 14.3609235,6.03225594 L14.3609171,6.03225477 Z M12.6151339,7.79665402 C12.452909,7.92306164 12.2189259,7.89402554 12.092518,7.73180025 C11.9661104,7.56957535 11.9951465,7.33559225 12.1573718,7.20918435 C12.5152155,6.93053074 12.8529528,6.78220377 13.1795179,6.78220377 C13.3150594,6.78220377 13.4477457,6.81522031 13.6037675,6.87653663 C13.6586295,6.89813385 13.7153532,6.92271003 13.7856059,6.9549818 C13.8199877,6.9707453 13.9395177,7.02647615 13.9603692,7.03603361 C14.2442364,7.16698241 14.4155248,7.22159657 14.576636,7.22159657 C14.8192942,7.22159657 14.9949282,7.13210453 15.1380403,6.93537104 C15.2567305,6.76742656 15.4890942,6.72749792 15.6570387,6.8461875 C15.8249831,6.96487774 15.8649118,7.19724142 15.7462222,7.36518589 C15.7442388,7.36799235 15.7422167,7.37077122 15.7401564,7.3735217 C15.4569102,7.76276819 15.057485,7.96632883 14.5766356,7.96632883 C14.2775017,7.96632883 14.0242922,7.88564948 13.6484508,7.71237546 C13.2994197,7.55138855 13.2369854,7.5268125 13.1795175,7.5268125 C13.0448453,7.5268125 12.8538205,7.61071907 12.6151338,7.79665356 L12.6151339,7.79665402 Z" id="形状" fill="#8D909A" fill-rule="nonzero"></path>
                        </g>
                    </g>
                </g>
            </g>
        </g>
    </g>
</svg>