<?xml version="1.0" encoding="UTF-8"?>
<svg width="18px" height="18px" viewBox="0 0 18 18" version="1.1" xmlns="http://www.w3.org/2000/svg" xmlns:xlink="http://www.w3.org/1999/xlink">
    <!-- Generator: Sketch 52 (66869) - http://www.bohemiancoding.com/sketch -->
    <title>房间wifi@3x</title>
    <desc>Created with Sketch.</desc>
    <g id="首页" stroke="none" stroke-width="1" fill="none" fill-rule="evenodd">
        <g id="12-首页-酒店详情-酒店设施" transform="translate(-14.000000, -1100.000000)">
            <g id="分组-15-copy" transform="translate(14.000000, 1099.644605)">
                <g id="分组-18">
                    <g id="房间wifi" transform="translate(1.000000, 1.317276)">
                        <rect id="矩形" x="0" y="0" width="16" height="16"></rect>
                        <path d="M8.37731417,4.65746798 C8.40501462,4.78036261 8.42897411,4.8904684 8.45216801,4.99693764 C8.63584006,5.84028744 8.71187709,6.18934438 9.35667803,6.92712973 C9.44124095,7.02387249 9.55973344,7.07335746 9.67883491,7.07335746 C9.78229696,7.07346878 9.88226269,7.03592045 9.96006753,6.96772341 C10.1378759,6.8122912 10.1560586,6.54214226 10.0006438,6.36433394 C9.50066121,5.79228146 9.45980653,5.60462486 9.28780974,4.81495337 L9.28780913,4.81495059 C9.26285977,4.69987003 9.23750411,4.58487855 9.21174253,4.46997564 C9.01724782,3.6062681 8.66627691,3.11724736 8.40609804,2.85910426 C8.23843378,2.69276239 7.96765845,2.69385858 7.80135138,2.86148803 C7.63500951,3.02915229 7.63608829,3.29987542 7.80371775,3.46621729 C7.95057187,3.61192303 8.22035542,3.96047537 8.37740581,4.65787584 L8.37731417,4.65746798 Z M10.2048128,5.30893305 C10.2688962,5.51209285 10.3351371,5.72217776 10.4278779,5.92667734 C10.5898177,6.28401656 10.8254628,6.56110802 10.9946235,6.73065145 C11.0747623,6.81118333 11.1837329,6.85639265 11.2973448,6.85624301 C11.4066154,6.85624301 11.515886,6.81462274 11.5993527,6.73134741 C11.7665472,6.56455314 11.766843,6.29379521 11.6000487,6.12661815 C11.4808602,6.00715128 11.3158755,5.81422255 11.2068137,5.57360103 C11.135318,5.41590684 11.0795344,5.23900331 11.0204621,5.05171211 C10.8993075,4.66754242 10.7619884,4.2321478 10.4450863,3.85987956 C10.2919856,3.68005286 10.0221325,3.65839014 9.84228839,3.81147338 C9.66244429,3.96459142 9.64076417,4.23444457 9.79386481,4.41427127 C9.99846879,4.65459699 10.0987089,4.97243872 10.2048301,5.30893301 L10.2048128,5.30893305 Z M12.1558846,7.85516425 C12.0713391,7.63463948 11.8240361,7.52439449 11.6035461,7.60892261 C11.3830213,7.69345072 11.2727763,7.94073636 11.3573044,8.16126114 L11.93489,9.66818625 C12.0001392,9.83837347 12.1622877,9.94287653 12.3342671,9.94287653 C12.386567,9.94284918 12.4384161,9.93320598 12.4872286,9.9144279 C12.7077533,9.82989978 12.8179983,9.58261414 12.7334702,9.36208937 L12.1558846,7.85516425 Z M11.3375731,11.7992762 L10.1225466,10.8401308 L11.0642574,10.5043325 C11.2866961,10.4250418 11.4027178,10.1804009 11.3234271,9.95794474 L10.7288419,8.29038488 C10.6907348,8.18357269 10.6117701,8.096266 10.5093089,8.04765798 C10.4068454,7.99903448 10.2892591,7.99312569 10.1824367,8.03123259 L7.69009256,8.91992622 L4.1089748,6.0929844 C3.92356277,5.94666967 3.65470141,5.97828507 3.50836929,6.1636623 C3.36203716,6.34903952 3.39366996,6.61793568 3.57906458,6.76426781 L6.73929913,9.25897828 L3.80813265,10.3041481 C3.5856939,10.3834563 3.46965478,10.6280798 3.54894557,10.8505359 L4.14353076,12.5181132 C4.20428972,12.6883812 4.3655345,12.8020653 4.54631819,12.8020949 C4.59526047,12.8020978 4.64383943,12.7936933 4.68993596,12.777248 L9.17173579,11.1791655 L10.8076629,12.4705595 C10.8829797,12.5302065 10.9762559,12.5626271 11.0723309,12.5625521 C11.1987228,12.5625521 11.323862,12.5067685 11.4082684,12.3998642 C11.5546179,12.2145044 11.5229677,11.9456082 11.3375905,11.7992761 L11.3375731,11.7992762 Z M10.0668673,8.98042525 L10.3742344,9.84241022 L9.33024777,10.2146785 L8.48239143,9.54541342 L10.0668673,8.98042525 Z M4.80548789,11.8280728 L4.49812082,10.966053 L7.531598,9.88441328 L8.37943694,10.5537131 L4.80548789,11.8280728 Z M15.3711372,4.88590966 C14.9681932,3.93321965 14.3914254,3.07772481 13.656859,2.34314101 C12.9222578,1.60857461 12.0667803,1.03180679 11.1140903,0.628862751 C10.127523,0.211581292 9.07979538,-3.19744231e-14 8,-3.19744231e-14 C6.92020462,-3.19744231e-14 5.87245963,0.211581292 4.88590966,0.628862751 C3.93321965,1.03180679 3.07772481,1.60857461 2.34314101,2.34314101 C1.60857461,3.0777422 1.03180679,3.93321965 0.628862751,4.88590966 C0.211581292,5.87247703 3.09974268e-13,6.92020462 3.09974268e-13,8 C3.09974268e-13,9.07979538 0.211581292,10.1275404 0.628862751,11.1140903 C1.03180679,12.0667803 1.60857461,12.9222752 2.34314101,13.656859 C3.0777422,14.3914254 3.93321965,14.9681932 4.88590966,15.3711372 C5.87247703,15.7884187 6.92020462,16 8,16 C9.07979538,16 10.1275404,15.7884187 11.1140903,15.3711372 C12.0667803,14.9681932 12.9222752,14.3914254 13.656859,13.656859 C14.3914254,12.9222578 14.9681932,12.0667803 15.3711372,11.1140903 C15.7884187,10.127523 16,9.07979538 16,8 C16,6.92020462 15.7884187,5.87245963 15.3711372,4.88590966 Z M8,15.1447661 C4.06035983,15.1447661 0.855233853,11.9396402 0.855233853,8 C0.855233853,4.06035983 4.06035983,0.855233853 8,0.855233853 C11.9396402,0.855233853 15.1447661,4.06035983 15.1447661,8 C15.1447661,11.9396402 11.9396402,15.1447661 8,15.1447661 Z" id="形状" fill="#8D909A" fill-rule="nonzero"></path>
                    </g>
                </g>
            </g>
        </g>
    </g>
</svg>