<?xml version="1.0" encoding="UTF-8"?>
<svg width="18px" height="19px" viewBox="0 0 18 19" version="1.1" xmlns="http://www.w3.org/2000/svg" xmlns:xlink="http://www.w3.org/1999/xlink">
    <!-- Generator: Sketch 52 (66869) - http://www.bohemiancoding.com/sketch -->
    <title>房间wifi@3x</title>
    <desc>Created with Sketch.</desc>
    <g id="首页" stroke="none" stroke-width="1" fill="none" fill-rule="evenodd">
        <g id="12-首页-酒店详情-酒店设施" transform="translate(-15.000000, -1028.000000)">
            <g id="分组-15" transform="translate(15.000000, 1028.644605)">
                <g id="分组-13">
                    <g id="房间wifi" transform="translate(1.000000, 1.336336)">
                        <rect id="矩形" x="0" y="0" width="16" height="16"></rect>
                        <path d="M0.687318414,7.95621149 C0.687318414,7.81998056 0.687318414,7.67401885 0.687318414,7.53778792 C0.706779975,7.52805714 0.726241536,7.50859558 0.745703097,7.4988648 C1.8452813,6.47713284 2.9448595,5.45540089 4.0444377,4.43366893 C5.17320825,3.37301385 6.31170957,2.32208955 7.44048012,1.27116525 C7.57671105,1.1446651 7.74213432,1.05708807 7.92701915,1.01816495 C7.96594227,1.00843417 7.99513461,0.998703392 8.03405773,0.988972611 C8.11190398,0.988972611 8.18975022,0.988972611 8.26759647,0.988972611 C8.29678881,0.998703392 8.32598115,1.00843417 8.35517349,1.00843417 C8.54005832,1.05708807 8.70548159,1.15439588 8.84171252,1.29062681 C9.62990574,2.04962769 10.418099,2.81835936 11.1965614,3.57736024 C12.500486,4.84236171 13.7946798,6.0976324 15.0986044,7.36263387 C15.1667199,7.43074934 15.2445661,7.4988648 15.3126816,7.56698027 C15.3126816,7.69348041 15.3126816,7.81024978 15.3126816,7.93674993 C15.3126816,7.97567305 15.3029508,8.01459617 15.3029508,8.05351929 C15.29322,8.17028866 15.2737585,8.29678881 15.205643,8.39409661 C15.0207582,8.67628925 14.7774887,8.86117408 14.4174498,8.8514433 C14.1352571,8.8514433 13.8627953,8.8514433 13.5806026,8.8514433 C13.5514103,8.8514433 13.5319487,8.8514433 13.5027564,8.8514433 C13.5027564,8.89036642 13.5027564,8.91955876 13.5027564,8.9487511 C13.5027564,10.5251376 13.5027564,12.0917932 13.5027564,13.6681797 C13.5027564,13.7654875 13.4930256,13.8530645 13.4638333,13.9503723 C13.4443717,13.9990262 13.4346409,14.0574109 13.4054486,14.1060648 C13.2205638,14.5731423 12.8799864,14.8650657 12.3837166,14.9721043 C12.3350627,14.981835 12.2766781,14.9915658 12.2280242,15.0110274 C9.36717467,15.0110274 6.51605597,15.0110274 3.65520648,15.0110274 C3.63574492,15.0110274 3.61628336,15.0012966 3.60655258,15.0012966 C3.52870634,14.9915658 3.44112931,14.981835 3.36328307,14.9623735 C2.99351341,14.8747965 2.75997467,14.6509885 2.65293609,14.2812188 C2.61401296,14.1449879 2.5945514,13.9990262 2.5945514,13.8627953 C2.5945514,13.6195258 2.5945514,13.385987 2.5945514,13.1427175 C2.5945514,11.7414851 2.5945514,10.3499835 2.5945514,8.9487511 C2.5945514,8.92928954 2.5945514,8.90982798 2.5945514,8.87090486 C2.56535906,8.87090486 2.53616672,8.87090486 2.50697438,8.87090486 C2.20532018,8.87090486 1.90366598,8.87090486 1.60201179,8.87090486 C1.52416554,8.87090486 1.4463193,8.86117408 1.37820383,8.83198174 C1.23224212,8.77359705 1.0960112,8.68602003 0.97924183,8.57898144 C0.823549342,8.44275052 0.745703097,8.27732725 0.716510755,8.07298085 C0.706779975,8.02432695 0.697049194,7.99513461 0.687318414,7.95621149 Z M3.30489838,8.1508271 C3.30489838,8.18975022 3.30489838,8.21894256 3.30489838,8.2481349 C3.30489838,10.0580601 3.30489838,11.8777161 3.30489838,13.6876412 C3.30489838,13.7362951 3.30489838,13.784949 3.31462916,13.8336029 C3.33409072,14.0379493 3.45086009,14.183911 3.63574492,14.2325649 C3.68439882,14.2422957 3.73305273,14.2520265 3.77197585,14.2520265 C4.28770722,14.2617573 4.80343859,14.2617573 5.31916996,14.2714881 C6.10736318,14.2714881 6.88582563,14.2617573 7.67401885,14.2617573 C8.12163476,14.2617573 8.57898144,14.2617573 9.02659735,14.2617573 C10.0385985,14.2617573 11.0603305,14.2617573 12.0723317,14.2617573 C12.2669473,14.2617573 12.4226398,14.183911 12.5491399,14.0476801 C12.6367169,13.9503723 12.6951016,13.8336029 12.7437555,13.7071028 C12.7534863,13.6779105 12.7534863,13.6584489 12.7534863,13.6292566 C12.7534863,12.8507941 12.7632171,12.0723317 12.7632171,11.2938692 C12.7632171,10.8073302 12.7632171,10.3110604 12.7632171,9.82452135 C12.7632171,9.27959764 12.7632171,8.74440471 12.7632171,8.199481 C12.7632171,8.18001944 12.7632171,8.16055788 12.7632171,8.13136554 C12.8021402,8.13136554 12.8313325,8.13136554 12.8507941,8.13136554 C13.3567947,8.13136554 13.8725261,8.13136554 14.3785267,8.13136554 C14.407719,8.13136554 14.4369113,8.13136554 14.4661037,8.12163476 C14.5439499,8.1021732 14.5634115,8.03405773 14.5244884,7.97567305 C14.5147576,7.95621149 14.495296,7.94648071 14.4855652,7.92701915 C14.0184878,7.46967246 13.5514103,7.01232577 13.0843328,6.54524831 C12.5296783,6.0003246 11.9652931,5.4456701 11.4106386,4.90074639 C10.5154068,4.02497614 9.62017496,3.14920589 8.70548159,2.29289721 C8.5011352,2.10801237 8.27732725,2.03989691 8.01459617,2.10801237 C7.87836524,2.13720472 7.7518651,2.18585862 7.65455729,2.28316642 C6.81771016,3.03243653 5.98086304,3.80116819 5.14401591,4.56016907 C4.30716878,5.31916996 3.48005243,6.07817084 2.64320531,6.8469025 C2.31235877,7.1485567 1.97178145,7.45994168 1.64093491,7.76159588 C1.59228101,7.81024978 1.55335788,7.85890368 1.5436271,7.92701915 C1.53389632,7.99513461 1.55335788,8.04378851 1.59228101,8.09244242 C1.62147335,8.14109632 1.67012725,8.14109632 1.71878115,8.14109632 C2.21505096,8.14109632 2.71132077,8.14109632 3.21732136,8.14109632 C3.2465137,8.1508271 3.26597526,8.1508271 3.30489838,8.1508271 Z M9.99526614,10.0702996 C9.92304551,10.1425202 9.82611781,10.1824316 9.72538903,10.1824316 C9.6227597,10.1824316 9.52773255,10.1425202 9.45551191,10.0702996 C9.41560051,10.0303882 8.83973595,9.4621258 7.94838125,9.4621258 C7.05702655,9.4621258 6.48116199,10.0284876 6.44125059,10.0702996 C6.36902995,10.1425202 6.2740028,10.1824316 6.17137347,10.1824316 C6.06874415,10.1824316 5.97371699,10.1425202 5.90149636,10.0702996 C5.75135345,9.92015668 5.75135345,9.67688717 5.90149636,9.52864481 C5.9033969,9.52674426 5.90529744,9.52294318 5.90909853,9.52104264 C5.91289961,9.51344046 6.63510598,8.74181997 7.94648071,8.74181997 C9.25025326,8.74181997 9.98196234,9.51344046 9.98766397,9.52104264 C9.98956451,9.52294318 9.99146506,9.52674426 9.99526614,9.52864481 C10.1435085,9.67688717 10.1435085,9.92015668 9.99526614,10.0702996 Z M11.7247603,8.11274022 C11.6525397,8.18496085 11.5594131,8.22297171 11.4586843,8.22297171 C11.3579555,8.22297171 11.2629284,8.18306031 11.1926083,8.11274022 C11.1907077,8.11083967 11.1907077,8.11083967 11.1888072,8.10893913 C11.1736029,8.09563533 10.8524111,7.78964789 10.2917509,7.485561 C9.77480315,7.20238008 8.94806691,6.8678845 7.94648071,6.8678845 C6.94299396,6.8678845 6.11625772,7.20238008 5.60121055,7.48366046 C5.04055034,7.78964789 4.71745802,8.09373478 4.70415422,8.10703859 C4.70225367,8.10893913 4.70225367,8.10893913 4.70035313,8.11083967 C4.62813249,8.18306031 4.53500588,8.22107117 4.4342771,8.22107117 C4.33354832,8.22107117 4.23852116,8.18115977 4.16820107,8.11083967 C4.02185925,7.96449786 4.01995871,7.72502943 4.16630053,7.58058815 C4.18910704,7.55778164 4.56921566,7.20428062 5.20969868,6.8545807 C5.81027029,6.52578675 6.77384563,6.13427487 7.94838125,6.13427487 C9.12291687,6.13427487 10.0864922,6.52768729 10.6870638,6.8545807 C11.3256463,7.20428062 11.7057549,7.55778164 11.7285614,7.58058815 C11.8711022,7.72692997 11.8711022,7.96449786 11.7247603,8.11274022 Z M7.94648071,10.9027375 C7.46944439,10.9027375 7.08173361,11.2904482 7.08173361,11.7674846 C7.08173361,12.2445209 7.46944439,12.6322317 7.94648071,12.6322317 C8.42351702,12.6322317 8.81122781,12.2445209 8.81122781,11.7674846 C8.81122781,11.2904482 8.42351702,10.9027375 7.94648071,10.9027375 Z" id="形状" fill="#8D909A" fill-rule="nonzero"></path>
                    </g>
                </g>
            </g>
        </g>
    </g>
</svg>