<?xml version="1.0" encoding="UTF-8"?>
<svg width="19px" height="18px" viewBox="0 0 19 18" version="1.1" xmlns="http://www.w3.org/2000/svg" xmlns:xlink="http://www.w3.org/1999/xlink">
    <!-- Generator: Sketch 52 (66869) - http://www.bohemiancoding.com/sketch -->
    <title>收费停车场@3x</title>
    <desc>Created with Sketch.</desc>
    <g id="首页" stroke="none" stroke-width="1" fill="none" fill-rule="evenodd">
        <g id="12-首页-酒店详情-酒店设施" transform="translate(-137.000000, -1100.000000)">
            <g id="分组-16-copy-2" transform="translate(137.000000, 1099.644605)">
                <g id="房间wifi-copy" transform="translate(0.000000, 0.317276)">
                    <g id="分组-19">
                        <rect id="矩形" x="1.48579263" y="1.20248174" width="16" height="16"></rect>
                        <g id="收费停车场" transform="translate(1.493077, 0.538119)" fill="#8D909A" fill-rule="nonzero">
                            <path d="M8.50045009,15.4339375 C4.6599954,15.4339375 1.56652134,12.3404634 1.56652134,8.50000873 C1.56652134,4.65955404 4.6599954,1.56607997 8.50045009,1.56607997 C12.3409048,1.56607997 15.4343788,4.65955404 15.4343788,8.50000873 C15.4343788,8.8199113 15.6471059,9.03263838 15.9670085,9.03263838 C16.2869111,9.03263838 16.4996382,8.8199113 16.4996382,8.50000873 C16.4996382,4.07333665 12.9254983,0.499196792 8.49882622,0.499196792 C4.07215414,0.499196792 0.499638152,4.07333665 0.499638152,8.50000873 C0.499638152,12.9266808 4.07377801,16.5008207 8.50045009,16.5008207 C8.82035266,16.5008207 9.03307974,16.2880936 9.03307974,15.968191 C9.03307974,15.6482884 8.82035266,15.4339375 8.50045009,15.4339375 Z M9.30101844,4.232476 L7.4335669,4.232476 L7.16725208,4.232476 L6.36668372,4.232476 L6.36668372,5.03304435 L6.36668372,8.2336939 L6.36668372,12.7675415 L7.4335669,12.7675415 L7.4335669,9.03263838 L9.30101844,9.03263838 C10.6342165,9.03263838 11.7010996,7.9657552 11.7010996,6.63255719 C11.7010996,5.29935918 10.6342165,4.232476 9.30101844,4.232476 Z M9.30101844,7.96737907 L7.4335669,7.96737907 L7.4335669,5.29935918 L9.30101844,5.29935918 C10.0479991,5.29935918 10.6342165,5.88557657 10.6342165,6.63255719 C10.6342165,7.3795378 10.0479991,7.96737907 9.30101844,7.96737907 Z M14.3691195,13.8344246 L14.3691195,12.7675415 L15.9653846,12.7675415 C16.2316995,12.7675415 16.4980143,12.5012266 16.4980143,12.2349118 C16.4980143,11.968597 16.2316995,11.7022821 15.9653846,11.7022821 L14.7426098,11.7022821 L15.2752395,11.1696525 C15.4879666,10.9569254 15.4879666,10.6370228 15.2752395,10.4226719 C15.0625124,10.2099448 14.7426098,10.2099448 14.5282589,10.4226719 L13.834866,11.1160648 L13.1414731,10.4226719 C12.928746,10.2099448 12.6088435,10.2099448 12.3944925,10.4226719 C12.1801416,10.635399 12.1817654,10.9553015 12.3944925,11.1696525 L12.9271222,11.7022821 L11.7010996,11.7022821 C11.4347848,11.7022821 11.16847,11.968597 11.16847,12.2349118 C11.16847,12.5012266 11.4347848,12.7675415 11.7010996,12.7675415 L13.3006125,12.7675415 L13.3006125,13.8344246 L11.7010996,13.8344246 C11.4347848,13.8344246 11.16847,14.1007395 11.16847,14.3670543 C11.16847,14.6333691 11.4347848,14.899684 11.7010996,14.899684 L13.3006125,14.899684 L13.3006125,15.9665671 C13.3006125,16.232882 13.5669273,16.4991968 13.8332421,16.4991968 C14.099557,16.4991968 14.3658718,16.232882 14.3658718,15.9665671 L14.3658718,14.899684 L15.9653846,14.899684 C16.2316995,14.899684 16.4980143,14.6333691 16.4980143,14.3670543 C16.4980143,14.1007395 16.2349472,13.8344246 15.9686324,13.8344246 L14.3691195,13.8344246 Z" id="形状"></path>
                        </g>
                    </g>
                </g>
            </g>
        </g>
    </g>
</svg>