<?xml version="1.0" encoding="UTF-8"?>
<svg width="18px" height="18px" viewBox="0 0 18 18" version="1.1" xmlns="http://www.w3.org/2000/svg" xmlns:xlink="http://www.w3.org/1999/xlink">
    <!-- Generator: Sketch 52 (66869) - http://www.bohemiancoding.com/sketch -->
    <title>矩形@3x</title>
    <desc>Created with Sketch.</desc>
    <g id="首页" stroke="none" stroke-width="1" fill="none" fill-rule="evenodd">
        <g id="12-首页-酒店详情-酒店设施" transform="translate(-260.000000, -1173.000000)">
            <g id="分组-16-copy-4" transform="translate(260.000000, 1172.144605)">
                <g id="房间wifi-copy" transform="translate(0.000000, 0.317276)">
                    <g id="分组-17" transform="translate(0.274308, 1.101241)">
                        <rect id="矩形" x="0.5" y="0" width="16" height="16"></rect>
                        <path d="M11.1810114,10.9439769 C10.7855165,10.5614433 10.0116332,9.92006577 9.28019306,9.91956025 C9.0358674,9.91956025 8.81018516,9.98996842 8.62435773,10.1240311 L8.1579491,10.4615131 C7.42756039,10.3062188 6.67850804,9.66953239 6.14583647,8.74656256 C5.61215386,7.82359274 5.4351224,6.8571486 5.66494988,6.14694005 L6.19038247,5.91088463 C6.86019024,5.60961773 7.07760226,4.74411489 6.8048262,3.47173289 C6.58482595,2.447842 5.83785633,0.512345259 4.57944678,0.512345259 C4.45744876,0.512371908 4.33621507,0.531587112 4.22018717,0.569286502 L3.33035893,0.857086469 C2.5678801,1.10454632 1.9937765,1.74436691 1.83176895,2.52805716 C1.35448163,4.82744403 1.95289042,7.65640872 3.47323778,10.2896581 C4.99459616,12.9224424 7.14697918,14.8548252 9.3759781,15.5898849 C9.6026916,15.6638923 9.83769555,15.7022306 10.0758135,15.7022306 C10.6297167,15.7022306 11.1618625,15.4982653 11.572341,15.1276417 L12.2659888,14.501288 C12.5123972,14.279205 12.8711311,13.7641658 12.5041067,12.8096316 C12.2825697,12.2329398 11.7763063,11.5180805 11.1810115,10.9439971 L11.1810114,10.9439769 Z M11.7602511,13.9406311 L11.0666032,14.5669848 C10.7948382,14.8123417 10.4417863,14.9474558 10.0758135,14.9474558 C9.9185579,14.947595 9.76230494,14.922429 9.61304447,14.8729226 C7.55594098,14.1948042 5.5562438,12.3866771 4.12652522,9.91179553 C2.69781768,7.43743971 2.12994202,4.80158187 2.570994,2.68130918 C2.67866876,2.16261005 3.05810854,1.73862426 3.56281501,1.57507995 L4.45211751,1.28622851 C4.4945808,1.27328732 4.53649812,1.26655386 4.57946692,1.26655386 C5.16647128,1.26655386 5.82285256,2.48822256 6.06770395,3.63014117 C6.24732364,4.46614214 6.17331621,5.09093882 5.88238204,5.22293898 L5.08366788,5.58114711 L5.06346749,5.62308466 C4.61982727,6.55586148 4.78393775,7.8976204 5.4920838,9.12393984 C6.20073536,10.3512703 7.28053624,11.1634716 8.31067531,11.2452438 L8.35724338,11.2488835 L9.06642068,10.7358866 C9.12338214,10.6944748 9.19273884,10.6742744 9.2802132,10.6742744 C9.981646,10.6748001 11.3942984,12.0232723 11.7996205,13.0792735 C11.9078008,13.3588234 11.9885619,13.7356548 11.7602712,13.9406311 L11.7602511,13.9406311 Z M14.325721,4.47962929 C13.4959277,2.84438841 12.0791301,1.63048443 10.3351833,1.061072 C10.2974587,1.04847682 10.2579585,1.04201179 10.2181868,1.04192308 C10.0549011,1.04169412 9.91014599,1.14691598 9.85997865,1.3023039 C9.79579843,1.49951552 9.9039787,1.71278232 10.1017161,1.77748827 C11.6536076,2.28427747 12.9151311,3.36512983 13.652779,4.82022527 C14.3924894,6.27584645 14.5198389,7.93179323 14.0130497,9.48370496 C13.9483437,9.68146255 14.0570497,9.89472934 14.255333,9.95890956 C14.2928463,9.97160097 14.3321817,9.97807603 14.3717835,9.9780787 C14.5353683,9.9780787 14.6803096,9.87351792 14.7310229,9.71767766 C15.2999298,7.97478225 15.1555142,6.11487016 14.325721,4.47960907 L14.325721,4.47962929 Z" id="形状" fill="#8D909A" fill-rule="nonzero"></path>
                        <path d="M9.6285942,3.22740724 C9.59078165,3.21547708 9.55145256,3.20876384 9.511072,3.20876384 C9.34748725,3.20876384 9.20254591,3.31332462 9.15286386,3.46914466 C9.08815791,3.6663765 9.19686391,3.88014881 9.39409576,3.94432903 C10.3662421,4.26114558 11.1561603,4.93928423 11.6199807,5.85343787 C12.0837809,6.76761173 12.1655733,7.80549529 11.8467144,8.77659017 C11.782514,8.97434775 11.89122,9.18759432 12.0889574,9.25282602 C12.1269923,9.26476287 12.1666154,9.27087134 12.2064796,9.27094369 C12.3700643,9.27094369 12.5144597,9.1663829 12.5646877,9.01108861 C12.9441275,7.84793835 12.8478369,6.60558397 12.2929227,5.51231615 C11.7369772,4.41850238 10.790693,3.60737276 9.6285942,3.22738702 L9.6285942,3.22740724 Z M8.68645523,6.11017898 C9.50124478,6.37676752 9.94642177,7.25523178 9.68033874,8.06947538 C9.61615852,8.26670722 9.72486453,8.47997402 9.92260189,8.54520571 C9.96039421,8.55711565 9.9997233,8.56382889 10.0390726,8.56382889 C10.2025913,8.5640572 10.3476473,8.45893326 10.3983322,8.3034683 C10.793807,7.09423527 10.1302069,5.78873191 8.92095368,5.39325719 C8.88307502,5.38060624 8.84340744,5.37413377 8.80347193,5.37408805 C8.63988718,5.37408805 8.49597709,5.47864883 8.44471784,5.63394313 C8.38053761,5.83271174 8.48871789,6.04599876 8.68645525,6.11017898 Z" id="形状" fill="#8D909A" fill-rule="nonzero"></path>
                    </g>
                </g>
            </g>
        </g>
    </g>
</svg>