<?xml version="1.0" encoding="UTF-8"?>
<svg width="18px" height="18px" viewBox="0 0 18 18" version="1.1" xmlns="http://www.w3.org/2000/svg" xmlns:xlink="http://www.w3.org/1999/xlink">
    <!-- Generator: Sketch 52 (66869) - http://www.bohemiancoding.com/sketch -->
    <title>无线 web@3x</title>
    <desc>Created with Sketch.</desc>
    <g id="首页" stroke="none" stroke-width="1" fill="none" fill-rule="evenodd">
        <g id="12-首页-酒店详情-酒店设施" transform="translate(-258.000000, -1028.000000)">
            <g id="分组-16-copy" transform="translate(258.000000, 1027.644605)">
                <g id="房间wifi-copy" transform="translate(0.000000, 0.317276)">
                    <rect id="矩形" x="1.16942747" y="1.03171966" width="16" height="16"></rect>
                    <g id="无线-web" transform="translate(2.169427, 1.980251)" fill="#8D909A" fill-rule="nonzero">
                        <path d="M13.9299898,12.6075508 L13.3562631,4.75656719 C13.3260669,4.0922521 12.9335181,3.72989874 12.4503796,3.72989874 L10.0346965,3.72989874 L10.0346965,0.559306813 C10.0045003,0.317738494 9.79312814,0.106365109 9.55155805,0.106365109 C9.30998973,0.106365109 9.09861635,0.317738494 9.09861635,0.559306813 L9.09861635,3.72989874 L4.87116634,3.72989874 L4.87116634,0.559306813 C4.87116634,0.317738494 4.65979296,0.106365109 4.41822464,0.106365109 C4.17665632,0.106365109 3.96528294,0.317738494 3.96528294,0.559306813 L3.96528294,3.72989874 L1.54959975,3.72989874 C1.00606971,3.72989874 0.70410798,4.1224488 0.673913046,4.75656719 L0.069991364,12.6075508 C0.00959919583,13.3322575 0.46254143,13.9965726 1.09665982,13.9965726 L12.9335304,13.9965726 C13.5374521,13.9965726 13.9903938,13.3322575 13.9300022,12.6075508 L13.9299898,12.6075508 Z M13.0241064,12.7887275 C12.9637142,12.8491197 12.7825381,13.0906892 12.7221447,13.0906892 L1.24762741,13.0906892 C1.18723524,13.0906892 1.00605909,12.8491209 0.945665683,12.7887275 C0.855077342,12.6981392 0.945665683,12.4565708 0.945665683,12.1848058 L1.6401757,5.11891524 C1.67037188,4.81695352 1.70056787,4.63577684 1.85154909,4.63577684 L12.1182336,4.63577684 C12.1786258,4.63577684 12.329607,4.75656135 12.3598019,5.11891524 L13.024117,12.1848058 L13.024117,12.4867675 C13.0543132,12.7283359 13.1147053,12.6981409 13.024117,12.7887293 L13.0241064,12.7887275 Z M11.6652813,10.9769607 L2.30448018,10.9769607 C2.06291186,10.9769607 1.85153847,11.1883341 1.85153847,11.4299024 C1.85153847,11.6714707 2.06291186,11.8828441 2.30448018,11.8828441 L11.6652813,11.8828441 C11.9068496,11.8828441 12.118223,11.6714707 12.118223,11.4299024 C12.118223,11.1883341 11.9068496,10.9769607 11.6652813,10.9769607 Z M3.21036358,7.05146002 C3.63310858,7.05146002 3.96526701,6.71930336 3.96526701,6.2965566 C3.965267,5.8738116 3.63311035,5.54165317 3.21036358,5.54165317 C2.78761858,5.54165317 2.45546016,5.87380983 2.45546016,6.2965566 C2.45546016,6.7193016 2.78761681,7.05146002 3.21036358,7.05146002 Z M5.32409743,7.05146002 C5.74684243,7.05146002 6.07900086,6.71930336 6.07900086,6.2965566 C6.07900086,5.8738116 5.7468442,5.54165317 5.32409743,5.54165317 C4.90135243,5.54165317 4.569194,5.87380983 4.569194,6.2965566 C4.569194,6.7193016 4.90135066,7.05146002 5.32409743,7.05146002 Z" id="形状"></path>
                    </g>
                </g>
            </g>
        </g>
    </g>
</svg>