<?xml version="1.0" encoding="UTF-8"?>
<svg width="18px" height="18px" viewBox="0 0 18 18" version="1.1" xmlns="http://www.w3.org/2000/svg" xmlns:xlink="http://www.w3.org/1999/xlink">
    <!-- Generator: Sketch 52 (66869) - http://www.bohemiancoding.com/sketch -->
    <title>房间wifi@3x</title>
    <desc>Created with Sketch.</desc>
    <g id="首页" stroke="none" stroke-width="1" fill="none" fill-rule="evenodd">
        <g id="12-首页-酒店详情-酒店设施" transform="translate(-14.000000, -1173.000000)">
            <g id="分组-15-copy-2" transform="translate(14.000000, 1172.144605)">
                <g id="分组-20">
                    <g id="房间wifi" transform="translate(1.000000, 1.317276)">
                        <rect id="矩形" x="0" y="0" width="16" height="16"></rect>
                        <path d="M15.6617636,11.7153213 C14.9445717,11.7608057 14.248935,11.4602898 13.7904483,10.9069137 C13.4685826,10.5700769 13.4012142,10.1583876 12.764967,10.1583876 L12.6601734,10.1583876 C12.1232144,10.1988873 11.6308895,10.4724006 11.3128317,10.9069137 C10.9083686,11.4326675 10.2767675,11.7331648 9.61367427,11.7153214 L9.44151379,11.7153214 C8.77084151,11.7269575 8.13147985,11.4320793 7.70493524,10.9143979 C7.37508268,10.4934691 6.88924335,10.2235573 6.3575935,10.1658718 C5.82620021,10.2243814 5.34066088,10.4941256 5.01025176,10.9143979 C4.58837302,11.4297187 3.95456267,11.7245778 3.28864708,11.7153212 L3.05660373,11.7153212 C2.14340136,11.6629244 2.06854875,11.2587201 1.75416858,10.9218833 C1.41283312,10.4836676 0.901097743,10.2114677 0.346945273,10.1733572 C0.158847939,10.1453953 0.0290335034,9.9702454 0.0569953374,9.78214808 C0.0792845414,9.63221128 0.197008455,9.51448763 0.346945253,9.49219817 L0.34694513,9.49219816 C1.07586071,9.52547881 1.75856314,9.85870332 2.23323405,10.4128847 C2.53264449,10.7272662 2.42036558,10.9742793 3.12397985,10.9967346 C3.64260204,11.0587659 4.15605979,10.846007 4.47880838,10.43534 L4.47880825,10.4353401 C4.91865154,9.90248109 5.54497504,9.55719962 6.23036037,9.46974175 L6.46240372,9.46974175 C7.1473944,9.54885489 7.77645606,9.886139 8.22144277,10.4128849 C8.52589926,10.8106308 9.00910307,11.0297584 9.50890819,10.9967347 C9.99867785,11.0322554 10.4718356,10.8112598 10.7589474,10.4128849 C11.2155236,9.83686793 11.903055,9.4917325 12.6377495,9.46974172 L12.7126021,9.46974172 C13.6332887,9.46974172 13.8728175,10.008681 14.262049,10.4203704 C14.579762,10.8394452 15.0940685,11.0610807 15.6168775,11.0042202 C15.8024446,11.0120851 15.9499287,11.1628478 15.9537143,11.3485424 C15.9638944,11.5272675 15.8382413,11.6851398 15.6617893,11.71532 L15.6617636,11.7153213 Z M14.8608402,7.97269084 C14.6610876,7.97693298 14.4946876,7.82051588 14.4865771,7.62088305 L14.4865771,4.97858118 L14.4865771,4.97857551 C14.4874449,4.35020859 13.9787562,3.840114 13.3503893,3.83924558 C13.3298921,3.83921727 13.3093978,3.83974287 13.288929,3.84082179 C12.8167582,3.82624943 12.3812057,4.09405593 12.181111,4.5219808 L12.181111,7.6133878 C12.1395648,7.82008774 11.9383216,7.95397059 11.7316216,7.91242455 C11.5807927,7.88210825 11.4629007,7.7642167 11.4325849,7.6133878 L11.4325849,1.57278429 C11.4916301,1.36608436 11.7070585,1.24638703 11.9137584,1.30543175 C12.0430809,1.34237358 12.1441689,1.44346197 12.181111,1.5727843 L12.181111,3.42912587 L12.1811111,3.42912579 C12.508515,3.20969822 12.8948267,3.09484825 13.2889292,3.09977457 C14.3129553,3.05007326 15.1833761,3.83991908 15.2330866,4.8639451 C15.2349397,4.90212535 15.235613,4.94035376 15.2351057,4.97857573 L15.2351057,7.60590391 L15.2351057,7.6059803 C15.2351057,7.80854603 15.0708939,7.97275782 14.8683282,7.97275782 C14.8658074,7.97275782 14.8632867,7.97273184 14.8607665,7.97267987 L14.8608402,7.97269084 Z M10.3172889,6.47563864 L9.5163654,6.47563864 L9.5163654,7.62088305 C9.47481924,7.82758295 9.27357601,7.96146581 9.06687607,7.91991977 C8.91604716,7.88960346 8.79815509,7.77171192 8.76783931,7.62088301 L8.76783931,6.47563861 L6.05816905,6.47563861 C5.92639672,6.47793282 5.80352439,6.40935271 5.73630336,6.29599261 C5.66654483,6.18909765 5.66654483,6.05108084 5.73630335,5.94418482 L8.82023667,1.75243604 L8.86514823,1.75243604 C8.93176765,1.66625572 9.03324552,1.61414534 9.14210338,1.61021639 L9.18701495,1.61021639 C9.35605044,1.62374297 9.49138198,1.75592688 9.50888066,1.92459788 L9.50888066,5.72710993 L10.2574068,5.72710993 C10.4580225,5.74400177 10.6182948,5.90113093 10.6391553,6.10137298 L10.6391553,6.10137316 C10.631996,6.28581258 10.498579,6.44094937 10.3172883,6.47563621 L10.3172889,6.47563864 Z M8.75286826,3.06236332 L6.84413197,5.72711255 L8.75286826,5.72711255 L8.75286826,3.06236332 Z M4.56860632,7.97269084 L1.11789679,7.97269084 C0.968019198,7.97523204 0.831677133,7.88631389 0.773574518,7.74813301 C0.714472289,7.61177645 0.747428069,7.45298834 0.85591238,7.35141468 C1.12538204,7.09691607 3.50570108,4.44713921 3.97726673,3.85579728 C4.09138262,3.51783159 4.06439697,3.14812906 3.90241413,2.830316 C3.69230367,2.49024243 3.30372747,2.30325827 2.90687495,2.35125957 C2.29618958,2.30434971 1.74536869,2.71746473 1.61940951,3.31685797 C1.60455152,3.38046298 1.57925824,3.44116704 1.54455706,3.49650386 C1.4353688,3.64838935 1.23080583,3.69633408 1.06550062,3.60878279 C0.900557233,3.52227202 0.829070411,3.32405918 0.900824338,3.1521816 C1.11591509,2.22161598 1.97670957,1.58633985 2.92932377,1.65512931 C3.66220255,1.58979248 4.35503392,1.99946341 4.65092857,2.67312506 C4.89956666,3.21934069 4.86028641,3.85344182 4.54613492,4.36479562 C4.1868416,4.76151524 2.77960912,6.3409003 1.95622778,7.2241632 L4.57606912,7.2241632 C4.78276904,7.2241632 4.95033215,7.39172631 4.95033215,7.59842625 C4.95033216,7.80512619 4.78276904,7.9726893 4.5760691,7.9726893 L4.56860632,7.97269084 Z M0.324462814,12.4638474 C1.06623896,12.4976058 1.75933086,12.8427947 2.23319915,13.4144761 C2.53260958,13.7288576 2.42033067,13.9758707 3.13143046,13.9983259 C3.6475302,14.0576441 4.15748926,13.8451615 4.47877206,13.4369313 C4.91551934,12.9029301 5.53903363,12.555046 6.22283738,12.4638474 L6.45488074,12.4638474 C7.14342124,12.5437963 7.77538027,12.8838722 8.22140645,13.414476 C8.52283137,13.8076614 8.99925754,14.0262574 9.49390082,13.9983259 C9.99112704,14.0287937 10.4709361,13.8099338 10.7738808,13.414476 L10.7738806,13.4144762 C11.255241,12.8359724 11.9604448,12.4901764 12.7125643,12.4638475 C13.6332509,12.4638475 13.8727797,13.0027868 14.2620112,13.4144762 C14.5797242,13.833551 15.0940307,14.0551865 15.6168397,13.998326 C15.8049371,14.0262878 15.9347515,14.2014378 15.9067897,14.3895351 C15.8845005,14.5394719 15.7667766,14.6571955 15.6168398,14.679485 C14.8996478,14.7249693 14.2040112,14.4244535 13.7455245,13.8710773 C13.4236588,13.5342406 13.3562904,13.1225512 12.7200432,13.1225512 C12.1658854,13.1606612 11.6541487,13.4328617 11.3128199,13.8710773 C10.9049278,14.3922193 10.2828807,14.7004916 9.62114927,14.7094271 L9.38910591,14.7094271 C8.73627052,14.7073718 8.11853254,14.4136022 7.70492213,13.9085037 C7.37506958,13.4875748 6.88923024,13.2176631 6.3575804,13.1599776 C5.8261871,13.2184871 5.34064777,13.4882314 5.01023866,13.9085037 C4.58835979,14.4238246 3.95454945,14.7186837 3.28863386,14.7094272 L3.04162077,14.7094272 C2.13590393,14.6570303 2.06853684,14.2453404 1.74667115,13.9159892 C1.40471332,13.4785143 0.893333209,13.2065039 0.339447844,13.1674631 C0.15135051,13.1395013 0.0215360743,12.9643513 0.0494979083,12.776254 C0.0717871123,12.6263172 0.189511025,12.5085935 0.339447824,12.4863041 L0.324462814,12.4638474 Z" id="形状" fill="#8D909A" fill-rule="nonzero"></path>
                    </g>
                </g>
            </g>
        </g>
    </g>
</svg>