<?xml version="1.0" encoding="UTF-8"?>
<svg width="18px" height="19px" viewBox="0 0 18 19" version="1.1" xmlns="http://www.w3.org/2000/svg" xmlns:xlink="http://www.w3.org/1999/xlink">
    <!-- Generator: Sketch 52 (66869) - http://www.bohemiancoding.com/sketch -->
    <title>房间wifi copy@3x</title>
    <desc>Created with Sketch.</desc>
    <g id="首页" stroke="none" stroke-width="1" fill="none" fill-rule="evenodd">
        <g id="12-首页-酒店详情-酒店设施" transform="translate(-137.000000, -1028.000000)">
            <g id="分组-16" transform="translate(137.000000, 1027.644605)">
                <g id="房间wifi-copy" transform="translate(0.000000, 0.317276)">
                    <rect id="矩形" x="1" y="1.97501564" width="16" height="16"></rect>
                    <g id="无线-web" transform="translate(1.000000, 3.475016)" fill="#8D909A" fill-rule="nonzero">
                        <path d="M10.9601106,8.14820079 C11.1387544,8.3331647 11.1336325,8.6279274 10.9486678,8.80657121 C10.7682332,8.9808412 10.4821739,8.9808412 10.3017393,8.80657119 C9.02898228,7.53368483 6.96533077,7.53358007 5.69243941,8.80633593 C5.69236101,8.80641432 5.69228262,8.80649271 5.69220423,8.8065711 C5.51356043,8.991535 5.21879774,8.99665852 5.03383383,8.81801394 C4.84886993,8.63937013 4.84374641,8.34460743 5.02239099,8.15964353 C5.02613869,8.15576326 5.02995353,8.1519484 5.03383382,8.1482007 L5.03383357,8.14820095 C6.67030809,6.51170678 9.32357666,6.51169041 10.9600741,8.14816418 C10.9600862,8.14817627 10.9600983,8.14818836 10.9601104,8.14820045 L10.9601106,8.14820079 Z M13.2648752,5.8434362 C13.4466799,6.02536856 13.4465751,6.32023602 13.2646424,6.50204069 C13.08271,6.68384537 12.7878426,6.68374061 12.6060379,6.50180789 C10.0605498,3.95631981 5.93340065,3.95631981 3.38791257,6.50180789 C3.2061079,6.68374024 2.91124208,6.683845 2.72930809,6.50204069 C2.54737574,6.32023602 2.54727097,6.0253702 2.72907528,5.84343621 C5.63866051,2.93430931 10.3557508,2.93430931 13.2648777,5.84343621 L13.2648752,5.8434362 Z M15.5696398,3.53867162 C15.7514444,3.72060398 15.7513397,4.01547144 15.569407,4.19727611 C15.3874746,4.37908079 15.0926072,4.37897603 14.9108025,4.1970433 C14.9108025,4.19704329 14.9108025,4.1970433 14.9108025,4.19704329 C11.0928159,0.379056707 4.90160927,0.379056707 1.08314798,4.19704329 C0.898184075,4.3756871 0.603421381,4.37056522 0.424777572,4.18560047 C0.250507578,4.00516588 0.250507578,3.71910662 0.424777579,3.53867204 C4.60687768,-0.643428069 11.387076,-0.643428069 15.5691762,3.53867204 L15.5696398,3.53867162 Z M8.65534601,11.7697095 C8.29160899,12.1333172 7.70197884,12.133214 7.33837112,11.7694767 C6.97476341,11.4057397 6.97486653,10.8161095 7.3386039,10.4525018 C7.3386039,10.4525018 7.33860391,10.4525018 7.33860392,10.4525018 C7.70234086,10.0888941 8.29197101,10.0889973 8.65557872,10.4527345 C9.01918644,10.8164715 9.01908331,11.4061017 8.65534608,11.7697094 Z" id="形状"></path>
                    </g>
                </g>
            </g>
        </g>
    </g>
</svg>