<?xml version="1.0" encoding="UTF-8"?>
<svg width="18px" height="18px" viewBox="0 0 18 18" version="1.1" xmlns="http://www.w3.org/2000/svg" xmlns:xlink="http://www.w3.org/1999/xlink">
    <!-- Generator: Sketch 52 (66869) - http://www.bohemiancoding.com/sketch -->
    <title>空调@3x</title>
    <desc>Created with Sketch.</desc>
    <g id="首页" stroke="none" stroke-width="1" fill="none" fill-rule="evenodd">
        <g id="12-首页-酒店详情-酒店设施" transform="translate(-15.000000, -1205.000000)">
            <g id="分组-15-copy-3" transform="translate(15.000000, 1204.144605)">
                <g id="房间wifi" transform="translate(0.000000, 0.317276)">
                    <g id="空调" transform="translate(0.100000, 1.591362)">
                        <rect id="矩形" x="0.8" y="0" width="16" height="16"></rect>
                        <path d="M15.3279678,11.3361079 L12.965887,9.97234691 L15.1904161,9.2772836 C15.3777945,9.21872572 15.482243,9.01936768 15.4236851,8.83197215 C15.3651616,8.6445938 15.1657348,8.54005931 14.9783909,8.59870312 L12.1288204,9.48908541 L9.51090325,7.97763209 L12.0827406,6.49278505 L14.9783909,7.3975361 C15.013694,7.40858768 15.0493753,7.41382987 15.0845066,7.41382987 C15.2358427,7.4137955 15.3761445,7.31637663 15.4236679,7.16430146 C15.482243,6.97690592 15.3777773,6.77758226 15.1903989,6.71900719 L12.9197557,6.00952355 L15.3101959,4.62941726 C15.4802149,4.53125933 15.5384634,4.31387158 15.4403055,4.14386982 C15.3421647,3.97390243 15.1247598,3.91558517 14.9547408,4.01376029 L12.59266,5.37750406 L13.1029574,3.10349204 C13.1459778,2.91195432 13.0255277,2.72182597 12.8339727,2.67885717 C12.6422631,2.63568212 12.4522895,2.75633851 12.4093551,2.94784186 L11.7556449,5.86078275 L9.15586065,7.36176887 L9.15586065,4.39760917 L11.3690804,2.35906618 C11.5134556,2.22603477 11.5226853,2.00118763 11.3897054,1.85679528 C11.256674,1.71245449 11.0318097,1.70315604 10.8874174,1.83617026 L9.15589503,3.43110336 L9.15589503,0.677611094 C9.15589503,0.481295241 8.99673859,0.322155993 8.80043993,0.322155993 C8.60412407,0.322155993 8.44498483,0.481295241 8.44498483,0.677611094 L8.44498483,3.43180805 L6.71260312,1.83611869 C6.56822796,1.70312166 6.34338082,1.71236855 6.21033223,1.85670934 C6.0773352,2.00111888 6.08658208,2.22598321 6.23095725,2.35899743 L8.44498483,4.39836542 L8.44498483,7.36218137 L5.8546365,5.86669526 L5.20094355,2.95375437 C5.15795756,2.76216508 4.96782922,2.64156025 4.7762915,2.68475249 C4.58473658,2.72772129 4.46430363,2.91784964 4.50728962,3.10937017 L5.01758709,5.38339938 L2.64527964,4.01376029 C2.47529507,3.91560236 2.25785575,3.97383368 2.1597322,4.14386982 C2.06157427,4.31387158 2.11982278,4.53124214 2.28984173,4.62941726 L4.69047421,6.01541887 L2.4198825,6.72488532 C2.23248697,6.7834432 2.12807279,6.98280124 2.18659629,7.17017959 C2.23411979,7.32228914 2.37440433,7.41972519 2.52577481,7.41972519 C2.56087173,7.41972519 2.5965874,7.414483 2.63189056,7.40343142 L5.52750643,6.49868037 L8.08910004,7.97763209 L5.4814095,9.48319009 L2.63189056,8.59284218 C2.44454659,8.53430149 2.24517136,8.63873286 2.18659629,8.8261112 C2.1280556,9.01348954 2.23248697,9.2128304 2.4198825,9.27140547 L4.64437728,9.96646878 L2.27206983,11.3361422 C2.10205088,11.434283 2.04378519,11.6516707 2.1419603,11.8216897 C2.20778851,11.9357117 2.32727615,11.9994946 2.45013254,11.9994946 C2.51042636,11.9994946 2.57156237,11.9841118 2.62750774,11.9517992 L5.0281746,10.5657804 L4.50730681,12.8869206 C4.46432082,13.0784755 4.58473658,13.2685695 4.77630868,13.3115383 C4.80251965,13.3174508 4.82867906,13.3202524 4.85447752,13.3202524 C5.01710584,13.3202524 5.16385288,13.2078804 5.20097793,13.0425536 L5.8652412,10.0824845 L8.4450192,8.59306562 L8.4450192,11.6096988 L6.23095725,13.6490324 C6.08654771,13.7820467 6.07731801,14.006911 6.21033223,14.1513033 C6.34332926,14.2956269 6.56817639,14.3048395 6.71258594,14.1719284 L8.44496764,12.5762218 L8.44496764,15.3223578 C8.44496764,15.5186565 8.60412407,15.6777957 8.80040555,15.6777957 C8.99672141,15.6777957 9.15587784,15.5186565 9.15587784,15.3223578 L9.15587784,12.5770124 L10.8874002,14.1719284 C10.9529382,14.2324671 11.0389088,14.2660426 11.1281286,14.2659441 C11.2240006,14.2659441 11.3195975,14.2273753 11.3896882,14.1513205 C11.5226681,14.0069282 11.5134384,13.7820638 11.3690632,13.6490496 L9.15587783,11.6104551 L9.15587783,8.59352967 L11.7450746,10.088397 L12.4093551,13.0484317 C12.4464629,13.21381 12.5931756,13.3261477 12.7558555,13.3261477 C12.7816024,13.3261477 12.8078305,13.3233289 12.8339899,13.3174336 C13.0255276,13.2744648 13.145995,13.0843365 13.1029746,12.8928159 L12.582124,10.5716757 L14.9725643,11.9517992 C15.0264616,11.9830307 15.0876473,11.9994832 15.1499395,11.9994946 C15.2727787,11.9994946 15.3922835,11.9357289 15.4581117,11.8216897 C15.5562525,11.6516535 15.4980212,11.434283 15.3280022,11.3361079 L15.3279678,11.3361079 Z" id="路径" fill="#8D909A"></path>
                    </g>
                </g>
            </g>
        </g>
    </g>
</svg>